<svg width="12" height="13" viewBox="0 0 12 13" fill="none" xmlns="http://www.w3.org/2000/svg">
<circle cx="6" cy="7.85715" r="4.84286" stroke="#A0A0A0" stroke-width="0.6"/>
<path d="M5.96582 5.21484C6.07292 5.21484 6.16406 5.25244 6.23926 5.32764C6.31445 5.40283 6.35205 5.49398 6.35205 5.60107C6.35205 5.70589 6.31445 5.7959 6.23926 5.87109C6.16406 5.94629 6.07292 5.98389 5.96582 5.98389C5.861 5.98389 5.76986 5.94743 5.69238 5.87451C5.61719 5.79932 5.57959 5.70817 5.57959 5.60107C5.57959 5.49398 5.61719 5.40283 5.69238 5.32764C5.76986 5.25244 5.861 5.21484 5.96582 5.21484ZM6.25635 6.74268L6.32129 6.78711C6.29622 7.08561 6.28369 7.46501 6.28369 7.92529V8.69775C6.28369 8.74788 6.28825 8.90967 6.29736 9.18311C6.30648 9.45426 6.31559 9.61263 6.32471 9.6582C6.3361 9.70378 6.35205 9.73682 6.37256 9.75732C6.39307 9.77783 6.41813 9.7915 6.44775 9.79834C6.47738 9.8029 6.60042 9.81201 6.81689 9.82568L6.84766 9.85303V9.99658L6.82031 10.0273C6.53548 10.0091 6.2609 10 5.99658 10C5.73454 10 5.4611 10.0091 5.17627 10.0273L5.14551 9.99658V9.85303L5.17627 9.82568C5.3973 9.81201 5.52148 9.80176 5.54883 9.79492C5.57845 9.78809 5.60352 9.77441 5.62402 9.75391C5.64681 9.73112 5.66162 9.69808 5.66846 9.65479C5.67757 9.60921 5.68669 9.46224 5.6958 9.21387C5.70719 8.96322 5.71289 8.77409 5.71289 8.64648V7.97314C5.71289 7.882 5.70833 7.75781 5.69922 7.60059C5.6901 7.44336 5.68213 7.34652 5.67529 7.31006C5.67074 7.2736 5.65365 7.2474 5.62402 7.23145C5.5944 7.21322 5.53516 7.2041 5.44629 7.2041L5.15918 7.20068L5.12842 7.17334V7.02637L5.15576 6.99902C5.59098 6.94661 5.95785 6.86117 6.25635 6.74268Z" fill="#A0A0A0"/>
</svg>
